<svg width="645" height="394" viewBox="0 0 645 394" fill="none" xmlns="http://www.w3.org/2000/svg">
<g clip-path="url(#clip0_8_36)">
<path d="M542.227 169.879C540.678 171.583 538.928 172.865 538.473 175.459C538.411 176.563 533.237 178.68 531.642 178.577C531.11 178.543 530.816 178.403 529.979 178.179C530.261 179.412 530.918 180.455 530.031 181.384C529.462 181.877 529.876 182.769 530.382 183.379C530.888 183.99 531.714 184.165 532.47 183.577C533.663 182.837 535.083 181.942 536.689 182.093C513.335 194.748 489.555 206.462 466.296 219.303C466.553 219.97 466.766 220.441 467.272 221.052C490.413 209.068 513.706 197.517 537.649 186.751C536.856 187.866 536.075 189.031 534.538 189.642C526.183 193.887 517.627 197.71 509.683 202.38C500.866 207.353 491.553 211.765 482.641 216.552C478.066 218.999 473.186 221.256 468.155 223.081C465.661 223.858 464.75 225.831 466.195 228.717C468.17 226.813 471.039 226.988 472.957 224.837C473.288 224.45 474.494 224.226 475.082 224.507C476.014 224.916 475.42 225.986 475.302 226.843C477.158 225.796 479.283 225.466 479.631 222.636C479.693 221.533 480.494 222.284 481.32 222.458C482.783 222.902 484.409 223.827 484.181 220.766C484.042 219.241 485.931 219.484 486.794 219.131C488.375 218.718 491.632 220.36 490.873 216.123C490.698 215.126 492.161 215.569 492.962 216.32C493.468 216.931 493.475 218.797 495.144 217.845C496.244 217.386 496.681 217.234 496.13 215.285C495.448 213.676 497.672 211.715 499.998 211.806C502.962 212.166 504.748 210.357 506.334 208.127C506.984 207.304 507.527 207.387 507.94 208.278C509.705 210.729 512.681 211.138 515.036 208.836C515.604 208.342 515.428 207.345 516.548 207.66C516.037 210.008 514.769 211.335 512.549 211.48C511.393 211.692 510.256 212.678 510.975 213.759C513.378 216.479 510.802 217.586 509.502 218.091C508.215 218.645 507.778 218.797 507.679 220.428C507.58 222.059 506.293 222.613 505.005 223.166C502.854 224.073 500.455 225.037 498.573 226.66C496.162 228.716 492.842 229.319 489.911 230.249C487.655 230.92 485.875 234.596 482.61 232.229C482.21 231.854 482.892 233.462 482.217 233.72C482.111 233.485 481.817 233.344 482.005 233.249C481.83 232.252 481.598 231.008 480.391 231.232C479.423 231.349 480.637 232.992 479.88 233.58C482.026 235.631 479.888 235.446 478.838 235.893C477.975 236.246 477.219 236.834 476.651 237.327C475.894 237.915 475.481 237.024 475.187 236.884C474.549 236.614 474.717 235.746 475.143 235.545C476.868 234.839 476.798 234.077 475.172 233.151C473.496 232.237 473.14 233.201 472.691 234.445C472.56 234.786 472.467 235.067 472.467 235.067C469.488 230.974 466.784 236.106 464.083 235.063C464.37 233.337 466.046 234.252 466.802 233.664C464.3 232.575 462.007 233.774 461.709 236.592C461.528 238.553 461.029 239.809 459.21 240.328C458.972 240.435 458.535 240.586 458.453 240.916C460.173 243.169 458.931 243.92 457.181 245.203C456.293 246.132 456.6 246.788 455.255 245.487C454.855 245.112 454.348 244.501 454.029 244.937C453.354 245.195 453.861 245.806 454.311 246.17C454.761 246.534 454.568 246.838 453.98 246.557C450.428 245.916 447.167 247.232 443.648 247.881C440.129 248.53 437.56 251.504 433.697 252.024C431.772 252.308 429.254 254.129 427.573 256.174C426.781 257.289 426.179 256.492 425.472 255.461C424.602 253.947 423.102 254.031 422.709 255.521C421.829 258.317 419.642 259.751 417.693 261.078C415.268 262.619 412.08 262.88 409.374 264.796C408.181 265.536 405.324 265.411 403.467 266.458C400.099 268.681 396.199 269.728 392.618 271.48C387.075 274.045 382.345 277.876 376.275 279.056C374.151 279.386 372.526 281.677 369.674 280.202C371.497 284.507 365.668 282.155 365.946 285.205C366.346 285.58 367.02 285.322 367.446 285.121C368.12 284.863 368.771 284.04 369.372 284.837C370.135 286.115 368.378 285.531 368.341 286.058C368.161 288.019 367.931 289.992 364.98 290.147C365.798 288.455 364.928 286.942 363.927 285.77C363.421 285.159 360.808 286.794 359.153 288.262C360.485 289.047 362.385 289.339 362.925 291.24C361.776 293.318 360.085 288.672 358.742 292.196C359.091 289.366 358.977 287.265 355.939 289.101C355.183 289.689 353.401 288.539 352.175 287.99C351.537 287.72 351.574 287.193 351.599 286.616C351.767 285.748 352.249 285.793 353.136 286.006C355.674 286.567 355.63 285.228 354.616 283.54C354.109 282.929 353.852 282.262 354.264 281.545C352.602 281.147 355.181 278.222 352.925 278.894C351.768 279.106 348.511 278.606 349.777 282.311C350.353 283.684 347.872 284.978 346.915 284.003C343.769 280.779 341.427 283.598 339.039 284.61C336.651 285.623 334.533 287.82 332.665 289.959C333.409 290.463 334.033 290.217 334.353 289.781C335.003 288.958 335.714 288.172 336.94 288.722C338.51 289.401 337.479 290.623 337.361 291.48C337.299 292.584 336.444 294.803 338.905 292.735C339.473 292.242 341.701 293.964 342.318 291.851C342.449 291.51 342.78 291.123 342.38 290.748C341.874 290.137 341.705 291.006 341.411 290.865C340.337 290.748 339.38 290.915 339.904 289.083C340.296 287.592 341.584 287.038 342.341 286.45C342.766 286.249 343.591 287.565 344.38 288.267C345.675 289.579 347.183 291.362 349.219 289.496C349.358 291.02 350.014 293.205 347.182 292.504C346.65 292.469 345.645 293.114 345.138 293.645C343.626 294.821 342.264 296.43 339.951 295.246C338.913 294.601 339.301 296.069 339.063 296.176C338.094 296.293 339.177 298.277 337.951 297.727C334.612 296.415 332.281 299.282 329.387 299.685C327.262 300.015 324.605 300.311 322.43 301.794C321.237 302.534 320.937 303.744 320.357 305.329C319.249 303.922 317.517 302.761 319.172 301.293C320.06 300.364 322.172 301.126 322.859 299.776C320.701 298.816 316.082 299.924 314.721 301.533C313.691 302.754 314.904 304.396 314.512 305.887C314.475 306.414 314.945 307.552 314.413 307.518C311.012 307.31 308.914 311.421 306.213 310.378C303.817 309.525 304.251 311.19 303.494 311.778C302.5 312.472 301.589 314.445 299.513 313.155C298.769 312.651 298.32 313.895 297.976 313.766C296.076 313.474 295.771 317.643 293.226 315.215C292.826 314.84 292.069 315.428 291.795 316.061C291.802 317.927 290.246 317.764 289.146 318.223C287.989 318.436 286.677 318.424 286.391 320.15C286.259 320.492 285.741 320.973 285.741 320.973C282.578 320.659 280.071 322.529 276.939 323.037C274.283 323.333 271.895 324.346 269.602 325.545C268.314 326.099 267.389 327.555 265.959 328.401C264.859 328.86 266.392 330.066 266.273 330.924C266.049 331.546 266.493 333.26 264.761 332.1C261.353 330.025 257.514 331.11 255.441 334.645C254.754 335.995 253.618 336.982 252.33 337.536C252.366 337.008 252.26 336.773 252.26 336.773C252.722 336.045 254.279 336.208 254.235 334.869C254.059 333.871 253.365 333.356 252.539 333.181C251.313 332.631 250.52 333.746 249.821 334.581C249.028 335.696 247.502 336.356 248.279 338.15C248.491 338.621 248.986 339.182 248.323 339.489C247.898 339.69 247.248 339.372 246.86 339.045C244.608 336.758 242.381 335.036 240.108 338.617C239.777 339.004 239.14 338.735 239.308 337.866C239.463 336.482 238.057 336.751 237.506 335.943C236.905 335.147 235.536 334.889 234.343 335.628C234.012 336.015 233.693 336.452 233.844 336.884C234.445 337.68 234.702 339.49 236.521 338.97C237.384 338.617 238.022 338.887 237.229 340.002C236.991 340.108 236.898 340.389 236.898 340.389C237.368 341.527 239.113 343.203 236.857 343.875C235.026 344.345 235.111 342.198 234.454 341.155C233.052 339.607 232.758 339.467 231.691 341.216C231.56 341.557 230.935 341.804 230.498 341.955C227.31 342.217 226.161 344.296 225.918 347.361C225.988 348.123 225.42 348.616 224.725 348.101C223.925 347.35 223.063 347.702 222.105 347.869C221.68 348.07 220.817 348.423 220.443 347.471C220.079 346.568 221.093 346.648 221.261 345.779C220.091 345.476 218.473 346.417 217.497 344.668C217.239 344.001 217.097 344.293 216.528 344.786C215.072 346.208 214.243 347.851 214.594 349.846C214.062 349.812 213.768 349.671 213.519 349.728C211.843 348.814 209.634 344.65 209.869 350.718C209.913 352.057 207.538 353.586 206.156 352.812C203.974 351.288 204.23 353.097 203.863 354.011C203.507 354.975 202.846 355.748 204.178 356.534C205.616 357.554 206.078 356.826 206.566 355.521C206.79 354.899 207.454 354.591 208.103 354.91C208.397 355.05 209.035 355.32 208.704 355.706C208.054 356.53 208.061 358.396 207.023 357.751C204.947 356.461 205.024 359.09 204.117 359.246C203.508 356.583 201.894 354.565 199.63 353.37C197.954 352.456 199.05 354.956 199.05 354.956C200.194 355.836 199.094 356.295 199.057 356.822C197.619 355.802 197.402 358.29 196.375 357.695C195.631 357.19 195.611 356.416 195.436 355.419C195.392 354.08 197.641 351.542 198.834 350.802C202.014 348.674 205.464 347.263 208.82 346.133C212.177 345.002 214.552 343.473 216.801 340.936C217.263 340.207 218.595 340.993 219.563 340.875C222.114 340.344 223.599 336.528 227.232 337.98C228.989 338.565 231.176 337.131 232.35 335.617C233.924 333.337 235.686 332.105 238.306 332.336C239.674 332.594 241.269 332.696 241.355 330.549C241.417 329.445 242.573 329.233 243.105 329.267C245.111 329.794 246.33 328.478 247.218 327.549C249.229 325.117 252.887 325.993 254.442 322.94L254.679 322.833C257.225 325.261 259.192 321.49 261.787 322.298C262.956 322.602 264.95 322.613 265.793 320.345C266.292 319.089 268.773 317.796 270.531 318.38C273.125 319.187 274.324 317.097 275.649 316.016C277.304 314.548 274.104 314.761 274.071 313.471C275.902 313.001 276.772 314.514 277.774 315.686C278.747 312.61 282.279 312.477 283.559 310.057C284.161 310.854 284.605 312.568 285.467 312.215C287.511 311.073 290.556 312.245 292.167 309.438C291.423 308.934 290.63 310.049 289.867 308.771C293.742 307.159 297.96 305.675 301.673 303.581C301.911 303.475 302.205 303.616 302.311 303.851C303.65 306.502 305.331 304.457 306.831 304.374C307.551 304.313 309.219 303.361 306.824 302.508C306.53 302.367 305.917 301.522 306.142 300.899C306.273 300.558 306.567 300.698 307.004 300.547C306.586 302.614 308.548 301.802 309.337 302.504C310.244 303.49 310.907 303.183 310.6 302.527C310.061 300.626 312.093 300.577 312.542 299.333C311.467 299.215 310.454 299.136 308.847 298.984C310.135 298.43 310.466 298.043 310.997 298.077C312.072 298.195 312.828 297.607 312.454 296.655C312.196 295.987 311.284 296.351 310.553 296.363C309.397 296.575 308.403 297.269 307.398 297.914C303.685 300.008 300.081 302.804 295.454 302.045C295.16 301.905 294.922 302.011 294.592 302.398C293.169 305.11 291.231 306.487 288.161 305.892C287.629 305.858 286.154 305.365 286.579 306.306C287.187 308.968 284.898 308.35 283.999 309.23C283.86 307.705 282.716 306.825 282.378 305.346C282.12 304.678 281.776 304.55 281.34 304.701C280.914 304.902 280.477 305.054 280.346 305.395C279.466 308.191 277.692 310.516 275.517 310.858C271.573 311.708 267.591 313.085 263.667 314.708C260.654 315.968 257.641 317.227 254.674 318.684C254.568 318.449 254.461 318.213 254.71 318.157C254.842 317.815 256.74 313.282 256.858 312.425C257.082 311.803 257.746 311.496 258.289 311.579C259.114 311.754 259.977 311.401 260.651 311.143C261.514 310.79 263.083 311.469 263.696 312.315C265.097 313.862 266.822 313.157 267.522 312.322C268.609 311.347 270.809 310.429 269.232 307.884C268.725 307.274 268.88 305.889 269.944 305.957C273.532 306.071 274.842 301.257 279.032 302.168C279.563 302.202 280.687 300.7 280.679 298.833C276.567 300.552 272.317 301.212 268.78 304.304C266.568 306.314 263.004 305.624 261.262 308.772C258.36 307.308 256.349 309.74 254.199 310.646C250.086 312.365 245.573 313.708 241.669 317.713C245.851 316.757 248.229 320.053 251.817 320.167C248.543 322.576 244.934 320.08 241.415 320.729C242.122 321.761 242.685 322.618 242.768 323.896C242.731 324.423 243.05 325.129 242.269 325.152C238.843 325.52 236.431 327.576 233.914 329.396C233.676 329.503 233.382 329.362 232.651 329.374C234.075 326.662 236.482 326.423 238.587 325.319C239.262 325.061 240.488 325.611 240.444 324.272C240.48 323.744 240.305 322.747 239.762 322.663C239.018 322.159 238.261 322.747 237.743 323.229C235.699 324.37 233.512 325.804 230.937 325.77C230.217 325.831 228.644 326.969 229.976 327.754C231.946 328.809 230.49 330.231 230.053 330.383C228.054 331.722 226.317 333.52 223.823 334.298C223.397 334.499 222.723 334.757 222.666 334.51C218.682 331.062 215.252 334.389 211.839 335.273C206.595 336.627 201.595 339.275 196.351 340.629C193.126 341.419 190.22 342.913 187.758 344.98C186.246 346.156 184.415 346.627 182.747 347.579C181.316 348.425 179.496 348.945 179.705 351.232C179.811 351.467 179.349 352.195 179.055 352.055C174.934 351.907 171.635 354.893 167.372 355.037C166.404 355.155 165.578 354.98 164.54 354.335C162.808 353.175 160.907 352.883 159.32 354.647C158.989 355.033 158.432 355.576 158.127 355.386C155.25 353.346 152.788 356.555 150.144 355.758C149.318 355.584 148.125 356.324 147.213 356.688C146.787 356.889 146.563 357.511 146.325 357.617C142.491 355.744 139.368 359.726 135.755 359.048C134.386 358.79 133.968 360.857 132.211 360.273C133.829 359.332 135.072 358.581 133.884 356.362C133.626 355.695 134.17 354.636 135.634 355.08C138.228 355.888 140.041 353.502 142.697 353.206C143.417 353.145 144.316 352.265 143.314 351.093C142.808 350.482 142.563 348.722 141.157 350.134C140.826 350.52 139.656 350.217 138.643 350.137C139.355 348.211 141.23 349.079 142.412 348.29C142.742 347.903 144.018 348.442 143.442 347.069C143.23 346.598 143.104 345.589 142.11 346.284C140.917 347.023 138.984 345.442 138.353 347.039C138.129 347.661 137.997 348.002 137.267 348.013C134.504 348.074 132.079 349.614 129.397 350.487C126.466 351.416 127.548 353.4 128.55 354.572C129.657 355.979 128.864 357.094 128.402 357.823C127.809 358.892 127.034 357.565 126.301 357.11C125.394 356.124 125.325 355.361 126.624 354.857C127.912 354.303 127.123 353.601 126.617 352.99C126.253 352.088 125.579 352.346 124.822 352.934C123.167 354.402 121.241 354.686 119.084 353.727C118.789 353.586 118.446 353.457 118.115 353.844C117.084 355.066 116.504 356.651 114.779 357.357C113.054 358.062 111.154 357.77 109.698 359.193C108.66 358.548 109.727 356.799 108.521 357.023C107.446 356.906 105.97 357.554 105.908 358.658C105.798 361.382 103.234 361.397 101.873 363.005C100.324 364.708 98.1367 366.142 96.1489 367.531C94.6365 368.707 92.6045 368.756 90.8103 368.699C89.3101 368.783 88.0917 370.099 87.2988 371.214C85.9376 372.823 84.8253 374.374 82.3932 374.048C82.0992 373.908 82.0372 375.011 81.8249 374.541C81.7479 371.912 79.8522 368.662 83.3515 367.239C84.026 366.981 84.6761 366.158 84.6319 364.819C81.6268 367.945 77.5319 367.22 74.245 369.113C72.2008 370.255 69.082 371.28 66.1069 370.87C65.5752 370.836 64.7129 371.189 64.6434 370.426C64.4311 369.956 64.5043 368.901 64.6359 368.56C64.9665 368.173 65.6664 367.339 66.4668 368.09C67.6109 368.97 67.9303 368.533 68.4855 367.524C69.5978 365.973 71.347 365.833 72.9289 365.419C73.8974 365.301 74.6536 364.713 75.4099 364.125C75.6475 364.019 75.7405 363.739 75.6344 363.503C75.671 362.976 75.1281 362.893 74.7025 363.094C73.5095 363.833 72.3399 363.53 71.1835 363.743C70.0271 363.955 68.2526 364.672 68.0206 363.428C67.657 362.525 67.5998 360.67 68.9243 359.589C69.162 359.483 69.1489 358.967 69.1742 358.391C66.5543 358.159 65.3433 361.342 62.3683 360.932C61.2936 360.815 63.0136 363.068 61.8318 363.857C62.976 364.737 64.1249 362.658 65.1958 364.592C64.2273 364.71 63.1075 364.395 62.1954 364.759C61.0023 365.499 60.1512 365.901 60.2255 363.705C60.2621 363.178 59.8873 362.226 58.9996 363.155C58.1005 364.035 57.7116 363.709 57.0992 362.863C55.0851 360.47 54.8475 360.576 53.8047 362.89C53.7531 359.685 53.8094 359.931 56.234 358.391C57.8526 357.45 60.1786 357.541 61.7775 355.827C61.5276 357.025 60.791 358.387 62.1729 359.161C63.2109 359.806 64.4735 359.828 65.504 358.607C66.1541 357.784 67.1226 357.666 67.7971 357.408C68.6595 357.055 70.5852 356.771 68.4143 355.295C67.6703 354.791 68.0508 354.393 68.3702 353.956C68.9385 353.463 69.4702 353.497 69.5961 354.506C69.6656 355.269 70.1973 355.303 70.6341 355.151C71.0596 354.95 71.2842 354.328 70.884 353.953C69.614 352.064 70.5327 351.957 71.9268 351.639C72.8953 351.521 74.4406 351.635 73.845 349.488C73.4815 348.585 73.5069 348.009 72.4068 348.468C67.5633 350.198 62.9884 352.644 58.5084 355.277C57.7521 355.865 56.1533 357.579 56.1129 354.424C57.291 349.951 55.6151 349.037 55.3906 349.659C54.3732 351.397 51.8462 350.885 51.229 352.998C50.191 352.353 50.8908 351.518 50.4775 350.627C49.7138 349.349 49.0064 348.317 51.7579 348.207C53.7899 348.157 55.989 345.631 57.5879 343.917C59.3747 342.107 61.6311 341.436 63.3812 340.154C64.3751 339.459 65.5315 339.247 66.0303 337.991C66.3864 337.028 67.2234 337.252 68.0491 337.426C70.1505 338.139 71.2994 336.061 72.624 334.979C72.0228 334.183 73.6414 333.242 72.8044 333.018C71.2347 332.34 68.8157 332.529 70.6147 329.627C70.8524 329.521 70.1084 329.017 69.6828 329.218C68.8205 329.571 67.7571 329.502 67.8961 331.027C67.9656 331.79 68.8721 332.776 67.385 333.375C67.0337 331.38 66.0323 330.208 64.4466 332.438C63.8529 333.508 63.727 332.499 63.3719 332.321C62.7341 332.052 62.8656 331.71 63.1963 331.323C65.2404 330.182 65.0197 328.987 63.3692 327.496C61.5674 325.573 63.7872 325.429 65.3109 324.302C63.806 327.344 65.3626 327.507 66.9577 327.61C66.4185 325.709 68.0916 321.799 70.0042 320.998C71.1042 320.539 72.0033 319.659 71.5787 318.718C71.0028 317.345 69.9723 318.567 69.3589 318.863C66.6769 319.735 63.8521 320.9 61.6285 322.861C61.3909 322.967 61.2978 323.248 61.2978 323.248C58.8658 322.922 57.3533 324.098 55.9921 325.706C55.342 326.529 54.3162 324.792 53.4097 323.806C54.6356 324.356 55.6041 324.238 56.0917 322.933C56.9099 321.242 55.2219 321.42 54.6206 320.623C55.2707 319.8 56.0767 319.201 57.0086 319.611C58.0466 320.255 58.5783 320.289 58.5455 319C58.476 318.237 60.0946 317.297 58.1942 317.005C57.1195 316.887 57.2877 316.018 56.9805 315.362C56.6169 314.46 55.7302 314.247 55.4803 315.446C54.9692 317.794 53.5751 318.112 51.5432 318.162C50.5747 318.279 49.4183 318.492 48.5306 319.421C48.1999 319.808 47.3375 320.161 46.9242 319.27C46.5607 318.367 46.7852 317.745 47.4484 317.438C51.2051 316.682 54.3859 314.554 56.6217 311.501C57.8767 309.657 60.709 310.359 61.1637 307.764C60.0195 306.885 59.3328 308.235 58.0816 308.262C57.4803 307.465 59.5376 306.839 58.5926 305.914L58.0609 305.879C57.1732 306.809 55.6363 307.42 55.4813 308.804C55.6569 309.802 54.6189 309.157 54.3813 309.263C52.943 308.243 52.293 309.066 51.7941 310.321C51.7941 310.321 51.4381 311.285 50.9318 310.674C50.9318 310.674 51.394 309.946 51.2878 309.711C51.006 308.478 48.8632 311.251 49.13 308.751C49.285 307.367 51.0304 309.043 51.7867 308.455C52.355 307.962 52.5795 307.34 51.8853 306.824C50.9788 305.838 50.5899 305.512 51.6655 304.488C52.7524 303.513 53.6279 303.676 54.5598 304.085C55.5978 304.73 55.7857 304.635 55.7529 303.346C55.9079 301.961 56.9713 302.03 57.8336 301.677C58.3033 302.815 56.2846 303.38 57.3789 304.271C58.8171 305.292 59.5292 303.365 60.7354 303.141C62.5663 302.67 60.4536 301.908 60.3024 301.476C60.0826 299.139 62.4452 298.703 63.6382 297.963C67.4071 296.116 70.5551 292.698 75.0313 291.882C75.4569 291.681 75.9191 290.953 75.8242 290.767C75.6485 289.769 74.9984 290.593 74.6546 290.464C73.1103 289.208 75.7415 289.489 75.2718 288.351C72.9788 289.55 70.5711 289.789 68.1465 291.329C65.7219 292.869 62.7092 294.128 60.0159 294.951C57.7595 295.623 55.1518 294.299 54.1757 292.551C53.412 291.272 54.8803 288.758 56.4041 287.631C56.7347 287.244 58.0227 286.69 58.2603 286.584C63.0259 288.867 62.0095 283.963 63.7465 282.165C64.0771 281.778 64.1025 281.201 64.3402 281.095C66.7648 279.555 69.3773 277.92 72.0959 276.52C70.8456 275.405 69.2195 274.48 67.9804 273.414C65.8349 271.362 65.6151 269.025 67.7457 267.345C69.8762 265.665 71.1435 262.729 74.5441 262.937C75.2637 262.876 75.9749 262.091 76.7311 261.503C77.3812 260.68 78.4117 259.459 79.5925 259.811C83.119 261.029 81.1049 258.635 81.167 257.532C78.4042 257.592 76.8992 260.635 74.1036 259.406C73.8171 261.132 72.129 261.31 71.0289 261.769C69.3042 262.475 67.6283 261.561 66.1084 260.87C65.8144 260.73 65.7449 259.968 66.2766 260.002C66.5142 259.895 67.1023 260.176 67.1023 260.176C67.789 258.826 70.8956 258.894 69.8698 257.157C69.1878 255.548 67.401 257.358 66.007 257.676C65.3325 257.934 64.9069 258.136 64.2822 258.382C63.4199 258.735 62.7454 258.993 61.9563 258.291C61.2123 257.787 61.4866 257.153 61.7111 256.531C62.3048 255.461 63.248 255.92 63.836 256.201C66.3376 257.29 66.7792 254.179 68.8111 254.13C68.4598 252.135 69.6219 250.572 69.3767 248.812C69.3251 245.607 71.5562 245.512 73.2443 245.333C75.2762 245.284 77.2949 244.719 79.6209 244.81C80.9896 245.068 82.8017 242.682 84.0201 241.365C84.5885 240.872 83.4443 239.992 82.3809 239.924C81.3062 239.807 80.7623 240.865 80.0878 241.123C77.1813 242.617 74.1367 241.445 71.2058 242.375C69.0555 243.282 66.9869 243.858 66.2016 246.84C64.2533 241.526 58.7147 241.131 55.3686 237.953C55.5001 237.611 55.5931 237.331 55.9369 237.46C58.7692 238.161 58.7692 238.161 61.144 236.633C63.143 235.294 65.5949 236.393 67.2388 234.876C67.995 234.288 70.1077 235.051 68.6254 232.691C68.4131 232.221 69.6559 231.47 70.1378 231.515C71.6381 231.432 72.725 230.457 74.0129 229.903C72.1745 228.507 70.5305 230.025 68.8875 230.4C65.0247 230.92 61.7875 232.802 57.8298 233.136C55.9041 233.42 54.6829 229.912 52.9093 232.237C52.8031 232.002 52.8398 231.474 52.8398 231.474C54.3767 230.864 51.0944 229.798 53.2945 228.88C59.6636 226.49 65.0436 221.836 71.8007 220.914C72.5203 220.853 72.6631 220.561 72.6556 218.695C73.9435 218.141 73.8326 220.864 75.0257 220.124C76.7758 218.842 76.8613 216.695 76.7477 214.594C73.6336 212.66 71.5969 215.668 69.1526 216.434C68.915 216.54 68.5843 216.927 68.6904 217.162C68.1794 219.51 66.3926 221.32 63.7924 221.862C61.8666 222.147 59.9295 222.382 58.3109 223.323C57.4044 222.337 60.0611 222.041 58.4218 220.599C56.0884 218.642 55.7032 221.999 53.8028 221.707C54.621 220.015 56.0518 219.169 57.2082 218.957C59.039 218.487 59.8206 217.322 59.9193 215.691C60.529 211.712 62.4595 208.469 64.0011 204.899C64.2256 204.277 65.088 203.925 64.3938 203.409C63.1106 201.004 66.1439 202.127 66.3121 201.258C67.7503 202.278 65.057 203.102 66.7329 204.016C68.0649 204.801 68.421 203.837 69.1209 203.003C70.4821 201.394 71.5896 202.802 72.6276 203.446C72.4961 203.788 72.591 203.974 72.4031 204.068C71.1227 206.488 69.0419 208.158 66.5365 208.886C65.862 209.144 64.9996 209.497 64.2801 209.557C62.4492 210.028 63.4618 211.249 63.8254 212.152C64.295 213.29 65.1574 212.937 66.0198 212.584C68.9507 211.655 72.0695 210.63 74.2565 209.197C76.4434 207.763 79.1329 208.756 81.0624 206.655C82.093 205.434 83.4504 205.642 84.7204 207.531C83.8628 204.925 86.0009 205.111 87.3 204.606C90.7495 203.195 94.2244 201.207 97.7932 200.547C100.78 199.864 102.254 195.999 106.03 197.16C106.668 197.429 107.678 193.826 109.685 193.211C111.324 194.652 112.554 193.385 114.03 192.737C116.418 191.724 119.074 191.428 120.554 188.962C121.016 188.234 121.416 188.609 121.817 188.985C122.617 189.736 123.492 189.899 124.424 190.309C125.062 190.578 125.756 191.094 126.219 190.365C126.443 189.743 126.174 189.026 126.105 188.264C126.035 187.502 125.635 187.126 124.961 187.384C124.535 187.585 123.768 188.124 123.592 187.126C123.523 186.364 124.242 186.303 124.785 186.386C128.436 185.396 131.779 183.75 135.278 182.327C138.291 181.068 141.284 179.035 144.59 177.916C146.553 177.104 149.635 176.607 150.952 173.659C151.639 172.309 152.625 169.749 155.065 171.941C155.865 172.692 156.14 172.059 156.353 171.387C156.946 170.318 156.214 169.862 155.945 169.145C155.582 168.243 155.039 168.159 154.187 168.561C151.494 169.385 148.882 171.02 147.201 173.064C145.946 174.908 143.363 174.149 142.402 176.133L141.87 176.099C140.582 176.653 139.107 176.16 138.78 174.73L138.674 174.495C138.205 173.357 136.286 175.507 136.41 173.3C136.509 171.669 138.029 172.359 138.597 171.866C139.353 171.278 140.053 170.443 141.104 169.996C145.147 167.515 149.66 166.172 153.809 163.926C159.045 160.706 164.683 158.327 170.152 156.351C170.826 156.093 171.652 156.267 172.24 156.548C171.814 156.749 171.352 157.477 171.553 157.898C172.893 160.55 171.086 161.585 169.443 161.961C165.756 163.478 162.351 166.228 158.194 166.608C157.662 166.574 156.682 167.784 157.208 169.168C157.677 170.306 158.646 170.188 159.214 169.695C161.533 167.92 165.121 168.034 166.626 164.992C166.758 164.65 167.276 164.168 167.276 164.168C171.903 164.927 174.544 160.898 178.231 159.381C180.194 158.569 182.507 158.144 184.106 156.43C184.436 156.043 185.206 155.971 185.5 156.111C187.932 156.437 187.625 155.781 189.775 154.874C191.737 154.063 193.467 150.398 196.756 153.33C197.557 154.081 198.445 153.152 198.507 152.048C198.687 150.087 200.224 149.476 201.687 149.92C205.026 151.232 206.838 148.846 208.625 147.037C209.843 145.721 210.98 144.734 212.786 143.699C210.685 142.986 209.177 141.203 207.159 141.768C206.733 141.97 205.577 142.182 205.426 140.608C205.488 139.504 204.818 137.945 206.069 137.919C210.427 137.96 212.487 133.909 216.481 133.048C218.844 132.611 220.712 130.472 223.434 133.897C223.214 131.561 222.569 129.425 225.269 130.468C225.907 130.737 226.263 129.774 226.594 129.387C227.281 128.037 228.949 127.084 229.881 127.494C232.382 128.583 233.212 126.94 234.324 125.389C234.918 124.319 236.074 124.107 237.186 123.697C241.486 121.884 245.716 120.45 250.017 118.636C252.604 117.578 254.243 119.019 255.883 120.46C252.477 123.211 248.083 123.696 244.432 124.687C241.019 125.57 239.428 129.151 235.839 129.038C237.502 129.436 239.203 129.773 240.691 129.174C241.553 128.821 242.709 128.609 243.559 129.348C244.36 130.099 244.891 130.133 244.953 129.03C245.49 126.105 247.853 125.669 250.047 126.101C251.947 126.393 253.529 125.98 255.172 125.604C257.429 124.932 259.616 123.499 257.238 120.203C262.02 119.576 266.602 118.996 271.128 118.169C272.097 118.051 271.652 116.337 272.915 116.359C275.571 116.063 279.578 114.11 281.908 112.384C282.664 111.796 283.588 110.339 284.99 111.887C285.096 112.122 286.722 113.047 286.952 111.075C287.051 109.444 288.027 111.193 288.453 110.991C289.209 110.404 292.085 112.444 290.864 108.936C290.394 107.798 291.951 107.961 292.589 108.23C293.733 109.11 295.09 109.318 295.883 108.203C296.782 107.323 295.638 106.443 294.838 105.692C293.836 104.52 294.192 103.557 295.08 102.627C295.968 101.698 296.58 102.544 297.274 103.06C297.675 103.435 298.488 104.702 299.281 103.587C299.875 102.517 298.411 102.073 297.905 101.463C300.925 102.07 304.212 100.177 307.158 102.98C305.665 104.929 303.507 103.97 301.819 104.148C301.288 104.114 300.157 103.75 300.825 104.842C301.427 105.639 299.713 106.394 301.177 106.837C303.278 107.55 310.815 104.997 311.821 103.211C312.152 102.824 312.415 102.141 312.001 101.25C310.783 102.566 309.308 102.073 307.713 101.971C308.637 100.514 311.551 100.886 309.786 98.4354C309.574 97.9651 309.955 97.5668 310.38 97.3657C313.536 95.8142 317.186 94.824 320.8 94.3611C321.225 94.1601 321.875 94.4787 322.132 95.1462C322.495 96.049 323.382 96.2613 323.596 95.59C324.913 92.6427 327.525 91.0077 330.006 89.7142C332.299 88.5155 335.451 88.7808 337.674 86.8197C337.912 86.7135 338.9 87.3697 339.538 87.6389C339.383 89.0234 337.176 88.0752 337.127 89.6949C336.959 90.5635 339.236 92.2741 340.098 91.9213C345.51 89.6983 350.041 85.9126 355.71 84.3572C356.572 84.0044 356.503 83.242 356.727 82.6199C357.608 79.8244 359.438 79.3539 361.109 81.6183C361.71 82.4149 361.909 82.3693 362.771 82.0165C364.734 81.2047 363.626 79.7975 363.087 77.8972C364.595 79.6799 366.557 78.8681 367.182 78.6215C369.226 77.4797 371.364 77.6655 373.464 77.9119C375.364 78.2039 376.795 77.358 377.507 75.4311C378.006 74.1755 379 73.4814 380.344 73.1741C382.894 72.6429 385.294 71.6794 387.224 68.4362C387.338 70.5375 387.345 72.4037 389.238 70.8295C390.751 69.6536 391.858 71.0608 393.333 71.5538C393.432 69.9228 392.475 68.948 391.048 67.977C394.498 66.5659 398.037 68.2991 401.288 66.9335C402.388 66.4745 403.544 66.262 404.337 65.1468C405.13 64.0316 406.087 63.8647 407.694 64.0163C408.768 64.1339 411.032 65.3286 410.555 62.3245C410.379 61.3269 411.549 61.6303 411.949 62.0058C412.881 62.4154 413.681 63.1664 414.52 63.8567C416.96 66.049 419.015 64.9565 421.297 63.7085C424.158 62.0166 426.559 59.9113 428.17 57.1044C426.919 55.9893 426.207 57.9162 425.301 56.93C426.218 53.6072 429.393 52.8295 431.605 50.8191C431.843 50.7129 432.137 50.8532 432.431 50.9935C433.575 51.8735 431.106 52.0746 432.402 53.387C434.041 54.8283 431.808 54.4566 431.371 54.6084C430.377 55.3026 428.983 55.6213 429.466 57.275C429.874 59.5167 431.366 57.567 432.192 57.7414C432.724 57.7756 433.586 57.4228 434.211 57.1762C434.637 56.9751 435.311 56.7172 436.173 56.3644C435.531 59.0537 433.499 59.1031 432.012 59.7025C430.618 60.0212 429.624 60.7153 428.325 61.2199C427.462 61.5727 426.032 62.4186 428.001 63.473C428.296 63.6133 428.259 64.1406 428.283 64.7057C428.541 65.3733 426.827 66.1282 428.291 66.5719C429.754 67.0157 430.147 65.525 430.265 64.6677C430.434 63.7991 430.952 63.3173 431.296 63.4463C434.304 65.1455 434.059 63.3855 434.371 61.0831C435.013 58.3937 438.176 58.7084 440.077 59.0004C442.697 59.2317 444.365 58.2795 446.02 56.8115C447.476 55.389 448.526 54.9414 450.022 57.8165C450.195 53.9893 451.801 54.1409 454.197 54.9943C455.954 55.5783 458.092 55.7641 459.854 54.5313C460.422 54.0381 460.941 53.5564 460.378 52.6992C459.978 52.3237 459.34 52.0544 460.096 51.4664C460.664 50.9733 461.49 51.1477 461.703 51.6181C463.786 54.7738 465.823 51.7658 466.19 50.8517C468.451 47.2216 471.137 44.5322 474.85 42.4382C475.087 42.332 475.18 42.0513 475.418 41.9451C473.742 41.031 472.655 42.0059 471.437 43.3222C472.149 41.3952 474.148 40.0562 475.668 40.7465C477.237 41.4253 477.862 41.1788 478.255 39.6881C478.292 39.1608 479.143 38.7587 479.579 38.607C481.304 37.9014 483.442 38.0871 484.485 35.7733C484.816 35.3864 486.341 34.7263 487.779 35.7466C488.924 36.6266 493.093 35.1547 493.829 33.7929C494.423 32.7232 494.423 32.7232 493.114 30.895C495.554 33.0873 497.56 33.6145 499.172 30.8075C499.502 30.4206 501.064 29.2333 501.792 31.0388C502.474 32.647 503.336 32.2942 503.823 30.9894C505.328 27.9472 507.622 26.7485 510.748 27.5904C512.411 27.9886 513.43 26.7179 514.623 25.9782C515.048 25.7771 515.217 24.9085 516.16 25.3675C516.798 25.6367 516.761 26.164 516.335 26.365C515.767 26.8581 516.581 28.125 515.411 27.8216C513.511 27.5296 513.048 28.2579 513.294 30.0179C513.645 32.0131 514.933 31.4592 516.064 31.8233C516.89 31.9977 517.433 32.0812 518.222 32.7829C513.892 36.9896 506.183 36.7282 503.926 44.0414C505.426 43.9579 506.913 43.3585 507.507 42.2888C508.1 41.2191 509.588 40.6198 509.694 40.8549C514.189 41.9547 516.892 36.8225 521.519 37.581C522.688 37.8844 522.737 36.2647 523.199 35.5364C528.368 43.02 527.349 33.2907 529.675 33.3816C530.581 34.3678 529.138 36.3061 531.227 36.5033L531.333 36.7385C530.372 38.7223 530.191 40.6833 531.568 42.8074C531.875 43.4636 530.855 44.7343 532.745 44.977C533.464 44.9163 533.945 46.1035 534.546 46.9C533.79 47.488 533.434 48.4514 532.228 48.6753C528.435 49.9575 524.596 51.0425 521.121 53.0302C519.691 53.8762 518.697 54.5704 517.422 55.6401C522.73 58.0067 526.279 53.8228 530.604 52.5747C531.279 52.3167 531.798 51.8349 532.53 52.2901C534.537 52.8172 535.931 52.4986 536.243 50.1961C536.411 49.3275 537.167 48.7396 537.805 49.0088C538.843 49.6536 538.087 50.2416 537.412 50.4995C537.175 50.6058 537.082 50.8864 537.082 50.8864C537.947 55.3585 534.722 56.1476 531.815 57.6422C531.191 57.8887 529.915 57.3502 529.853 58.454C529.435 60.5213 529.005 62.5392 528.094 64.5116C527.764 64.8985 529.001 65.4978 529.026 64.9212C529.419 63.4305 531.577 64.3901 531.9 62.137C532.08 60.1759 533.632 63.2976 534.556 61.841C531.848 58.9318 537.5 59.8192 535.654 56.5572C537.198 57.8126 536.061 58.7989 536.993 59.2085C537.819 59.3829 537.987 58.5143 538.318 58.1274C538.542 57.5053 539.005 56.777 539.642 57.0463C542.25 58.37 544.625 56.8413 546.187 55.654C548.186 54.3149 549.019 56.3555 550.601 55.942C552.432 55.4716 553.958 54.8115 555.789 54.3411C558.67 53.4231 560.919 50.8854 564.319 51.0939C564.557 50.9876 564.994 50.8359 564.888 50.6007C565.567 47.3841 569.437 48.7305 570.824 46.5456C571.155 46.1587 571.568 47.0501 571.968 47.4256C572.474 48.0363 572.675 48.4573 571.869 49.0566C571.113 49.6446 570.357 50.2325 569.425 49.8229C569.27 51.2074 565.485 47.7141 567.107 51.5982C564.982 51.9283 563.833 54.007 561.669 54.3978C559.838 54.8682 558.62 56.1844 559.171 58.1341C559.684 60.6109 561.254 61.2898 564.035 58.7862C562.849 61.3922 561.43 62.2874 559.999 63.1333C559.325 63.3913 558.568 63.9792 558.887 64.6847C559.356 65.8226 560.113 65.2347 560.893 65.2119C562.5 65.3635 563.281 64.199 564.687 63.9297C565.218 63.9638 565.479 62.8145 566.269 63.5161C566.775 64.1268 566.55 64.7489 566.088 65.4772C565.626 66.2055 565.27 67.1689 564.265 67.8138C568.723 69.4408 572.304 67.6883 575.885 65.9357C576.748 65.5829 576.96 66.0532 577.217 66.7208C577.581 67.6236 578.655 67.7411 578.975 67.3049C580.168 66.5652 579.037 66.2011 578.637 65.8256C580.067 64.9797 580.992 63.5231 582.786 63.5799C583.318 63.614 584.049 63.6026 584.686 63.8719C587.8 65.8062 590.608 65.9426 593.151 63.5453C595.506 61.2428 597.546 63.0596 599.928 63.3971C597.566 63.8334 596.773 64.9486 596.861 67.6265C597.044 70.4903 594.736 67.9566 593.874 68.3094C593.812 69.4132 595.982 70.8886 592.831 70.6232C590.068 70.684 587.456 72.319 584.525 73.2484C583.662 73.6012 582.162 73.6847 582.55 75.1526C582.888 76.6319 584.282 76.3132 585.346 76.3815C585.877 76.4156 586.314 76.2638 587.034 76.2031C586.747 77.929 583.915 77.2274 584.429 79.7043C586.685 79.0328 588.729 77.891 591.092 77.4546C592.248 77.2422 594.141 75.668 594.725 78.9072C594.97 80.6672 595.113 80.3752 593.47 80.7507C592.075 81.0694 590.813 81.0467 589.251 82.234C585.608 85.0904 584.348 89.8925 580.943 92.6426C580.029 89.7903 580.085 90.0368 582.616 88.7319C583.478 88.3791 584.684 88.1553 584.19 86.4522C583.757 84.787 582.551 85.0109 581.688 85.3637C579.101 86.4221 576.383 87.8218 573.902 89.1154C573.476 89.3164 572.908 89.8096 573.252 89.9385C575.479 91.6605 573.823 94.2702 574.788 95.9695C575 96.4398 574.501 97.6953 575.657 97.4829C576.626 97.3652 576.85 96.7432 576.77 95.9314C576.431 94.4522 577.387 93.8187 578.417 92.5972C578.539 96.5648 580.395 95.5178 582.013 94.5771C583.55 93.9663 584.875 92.8852 586.219 92.5779C588.582 92.1416 591.382 90.4119 592.247 94.8839C593.997 93.6017 595.722 92.8961 594.914 90.2789C594.607 89.6227 595.025 87.5555 597.269 87.9764C599.276 88.5036 599.588 86.2011 600.143 85.1922C600.936 84.077 599.142 84.0201 598.447 83.5043C597.409 82.8595 597.765 81.8961 597.99 81.274C598.158 80.4054 599.278 80.7201 599.916 80.9894C601.886 82.0438 602.399 84.5207 600.719 86.5652C600.069 87.3884 600.195 88.3973 600.264 89.1597C600.44 90.1573 601.339 89.2773 601.633 89.4176C601.927 89.5579 602.458 89.592 602.458 89.592C602.327 89.9334 602.29 90.4607 602.209 90.7907C599.89 92.566 598.411 95.0315 595.88 96.3365C593.293 97.3949 589.397 96.625 588.068 100.665C587.936 101.006 585.194 103.449 583.286 101.291C582.992 101.15 582.024 101.268 581.892 101.609C581.576 105.729 577.673 103.093 575.936 104.891C575.606 105.278 574.48 106.313 573.468 105.092C573.361 104.857 572.298 104.789 572.499 105.21C573.152 109.211 569.494 108.335 567.945 110.038C570.013 109.462 571.991 112.382 573.79 109.481C574.12 109.094 574.926 108.494 575.646 108.434C578.54 108.031 581.421 107.113 583.846 105.573C584.708 105.22 585.677 105.103 586.466 105.804C585.178 106.358 584.892 108.084 583.016 107.216C582.085 106.806 582.023 107.91 581.798 108.532C581.574 109.154 581.548 109.731 581.937 110.057C582.681 110.561 583.2 110.079 583.569 109.632C584.656 108.657 586.401 110.333 587.388 107.773C587.321 111.835 584.64 111.566 583.127 112.742C582.453 113 581.496 113.167 582.015 114.294C582.379 115.196 583.09 114.411 583.621 114.445C585.584 113.633 587.84 112.962 589.753 112.162C588.142 114.968 585.68 117.036 583.174 118.906C582.606 119.399 582.675 120.161 582.994 120.867C583.701 121.899 583.001 122.733 582.883 123.59C582.927 124.929 582.127 124.178 581.595 124.144C580.769 123.97 581.288 123.488 581.419 123.147C581.75 122.76 581.775 122.183 582.106 121.796C580.88 121.246 582.524 119.729 581.355 119.426C580.529 119.251 579.924 120.272 579.805 121.129C579.625 123.09 577.982 123.465 575.832 124.372C579.314 124.251 580.81 127.126 583.228 126.936C578.535 130.24 578.109 137.083 572.778 140.117C574.453 141.031 575.602 138.953 577.11 140.735C576.222 141.665 575.029 142.404 573.717 142.393C572.217 142.477 571.567 143.3 570.668 144.18C569.449 145.496 567.724 146.202 565.824 145.91C563.204 145.678 561.569 147.92 559.23 148.922C554.113 151.285 549.738 155.295 544.326 157.518C542.789 158.128 541.464 159.209 539.952 160.385C539.621 160.772 538.37 160.799 539.028 161.842C539.534 162.453 540.36 162.627 540.822 161.899C541.284 161.17 541.615 160.784 542.44 160.958C543.241 161.709 541.116 162.039 542.154 162.684C542.554 163.059 543.617 163.128 543.985 162.213C544.484 160.958 545.072 161.239 546.11 161.883C547.842 163.044 545.516 162.953 545.823 163.609C545.952 166.693 542.195 167.448 542.227 169.879ZM390.87 256.729C388.144 256.262 385.781 256.699 383.701 258.368C381.951 259.65 379.87 261.319 377.801 261.896C370.526 263.299 364.201 267.028 357.207 269.665C352.126 271.501 347.057 273.853 341.987 275.738C336.282 277.821 331.113 281.337 325.15 282.752C323.756 283.071 321.23 283.026 320.967 283.709C318.163 287.255 313.699 286.978 310.118 288.731C305.781 291.072 301.338 293.177 296.788 295.047C292.913 296.659 289.471 299.937 285.077 300.422C283.576 300.506 284.496 302.008 284.034 302.736C320.416 288.401 355.959 273.375 390.87 256.729ZM516.724 175.657C515.363 177.266 518.126 177.205 518.657 177.239C520.558 177.531 521.601 175.217 523.526 174.933C523.952 174.732 523.776 173.734 523.307 172.596C522.514 173.711 521.332 174.5 519.681 173.01C521.876 173.442 523.226 171.784 524.869 171.409C526.025 171.196 524.036 169.368 525.262 169.918C526.594 170.703 527.881 170.149 529.356 170.642C531.019 171.041 533.014 171.518 533.402 172.986C534.048 175.122 535.122 175.239 536.668 175.353C537.13 174.625 535.585 173.369 537.016 172.523C537.878 172.171 539.636 172.755 539.335 170.748C537.434 170.456 535.152 171.704 533.076 170.415C536.04 170.775 537.182 166.83 540.577 168.389C541.214 168.658 541.439 168.036 541.464 167.459C541.526 166.356 541.751 165.734 542.851 165.274C543.276 165.073 543.951 164.815 543.644 164.159C543.337 163.503 542.712 163.75 542.275 163.901C539.288 164.584 536.156 165.093 533.18 165.825C532.023 166.037 530.993 167.259 530.967 167.835C530.688 171.427 528.461 169.705 527.174 169.118C525.417 168.534 523.916 168.617 522.298 169.558C519.685 171.193 517.568 173.389 514.248 173.992C512.616 174.417 510.442 176.367 511.463 179.454C514.439 178.722 516.533 177.569 516.724 175.657ZM381.65 267.502C382.443 266.387 385.006 266.371 384.193 265.104C383.217 263.356 381.573 264.873 380.274 265.378C380.036 265.484 379.848 265.579 379.599 265.636C375.299 267.449 370.937 269.224 366.837 271.459C363.125 273.553 358.875 274.213 355.669 276.917C354.156 278.093 355.088 278.503 356.077 279.159C357.115 279.804 357.977 279.451 358.733 278.863C361.239 276.993 364.333 276.545 367.359 275.802C368.515 275.589 369.378 275.236 369.677 274.026C370.426 271.572 372.388 270.76 374.264 270.487C377.019 269.702 378.993 267.798 381.65 267.502ZM100.649 346.422C95.9115 348.387 91.9744 351.103 87.4615 352.446C87.036 352.647 85.7368 353.152 86.2065 354.289C86.6762 355.427 87.7762 354.968 88.6386 354.616C90.0693 353.77 91.1196 353.322 92.2966 355.492C92.4027 355.727 94.6375 359.315 94.9532 355.196C94.9899 354.668 95.4154 354.467 96.2411 354.642C98.9673 355.108 100.897 353.007 103.235 352.005C103.661 351.804 104.097 351.652 103.885 351.182C103.816 350.42 103.141 350.678 102.553 350.397C100.89 349.999 99.4962 350.317 98.0768 351.213C97.5084 351.706 96.646 352.059 96.2825 351.156C96.0251 350.488 96.7447 350.428 97.3694 350.181C99.0011 349.756 99.794 348.641 100.649 346.422ZM234.508 129.861C230.303 131.86 226.153 134.106 221.909 136.165C220.809 136.624 219.828 137.834 219.077 135.464C218.644 133.799 216.681 134.61 215.914 135.149C214.058 136.196 216.714 135.9 216.49 136.522C216.453 137.049 216.559 137.285 216.24 137.721C215.352 138.65 215.222 139.458 216.317 140.349C217.223 141.336 218.074 140.933 219.186 140.524C222.542 139.393 225.379 137.136 228.935 135.96C231.273 134.959 235.393 135.107 234.508 129.861ZM436.418 245.59C438.806 244.578 438.535 243.394 437.49 240.883C436.338 238.137 435.589 240.591 434.764 240.417C432.038 239.95 433.946 242.108 433.721 242.731C433.197 244.563 431.212 239.776 430.933 243.368C430.871 244.472 429.784 245.447 428.578 245.67C426.996 246.084 425.671 247.165 424.241 248.011C423.672 248.504 422.41 248.481 422.879 249.619C423.349 250.757 424.542 250.017 424.968 249.816C429.044 248.625 432.731 247.108 436.418 245.59ZM421.73 251.698C420.729 250.526 419.136 250.89 419.185 249.27C419.221 248.743 420.615 248.425 419.471 247.545C418.727 247.04 418.077 247.863 417.64 248.015C415.916 248.721 414.191 249.426 412.522 250.378C411.66 250.731 410.504 250.944 410.442 252.047C410.449 253.914 412.367 251.763 412.624 253.572C410.961 253.174 409.73 253.974 408.537 254.714C407.249 255.268 408.356 256.675 408.544 256.58C411.025 255.287 409.652 257.987 410.583 258.397C411.769 255.791 415.746 256.231 416.568 252.722C416.605 252.195 417.243 252.464 417.394 252.897C417.639 254.657 418.62 253.447 419.057 253.295C419.969 252.931 420.468 251.675 421.73 251.698ZM510.687 46.8025C511.258 51.1341 511.658 51.5096 514.234 50.402C516.821 49.3436 519.539 47.9438 521.089 46.2406C523.063 44.3364 524.838 43.6194 527.15 43.1945C527.87 43.1338 528.343 42.4548 528.263 41.6431C528.087 40.6455 526.931 40.858 526.505 41.059C524.887 41.9998 522.961 42.2843 521.387 43.4223C520.194 44.162 517.52 46.9008 517.66 41.7839C515.536 43.7223 514.381 47.1513 510.687 46.8025ZM400.438 260.768C403.964 261.986 406.72 260.059 407.355 255.503C407.391 254.976 408.372 253.766 407.241 253.402C406.309 252.992 405.047 252.969 404.654 254.46C403.949 258.253 401.494 258.97 398.468 259.714C397.312 259.926 396.281 261.148 395.687 262.217C395.357 262.604 396.689 263.389 397.327 263.659C398.552 264.209 399.947 263.89 401.083 262.904C402.039 262.27 400.138 261.978 400.438 260.768ZM469.949 54.9215C471.049 54.4625 471.674 54.2159 471.994 53.7797C472.856 53.4269 473.612 52.8389 473.011 52.0424C472.41 51.2459 470.935 50.7528 470.179 51.3408C468.523 52.8088 465.772 52.9189 464.623 54.9976C464.399 55.6197 463.43 55.7373 462.829 54.9408C462.429 54.5653 462.228 54.1443 461.754 54.8232C460.368 57.0081 458.524 58.571 455.818 58.8783C455.286 58.8442 455.25 59.3714 455.168 59.7015C455.131 60.2287 455.674 60.3121 455.912 60.2059C456.444 60.24 457.068 59.9934 457.6 60.0276C462.375 59.1435 465.862 56.0634 469.949 54.9215ZM399.647 76.0256C401.041 75.7069 401.903 75.3541 402.634 75.3427C408.079 74.4094 412.853 71.9171 417.64 69.9407C418.314 69.6827 419.659 69.3754 419.558 67.7899C417.87 67.9683 417.082 66.1249 415.582 66.2084C415.834 69.8345 412.602 68.7575 411.04 69.9448C408.853 71.3786 406.534 73.1539 404.115 73.3437C401.896 73.4879 400.902 74.1821 399.647 76.0256Z" fill="#007E72"/>
<path d="M171.998 156.863C172.615 154.75 173.396 153.585 176.103 153.278C178.029 152.994 180.109 151.324 181.871 150.092C183.764 148.517 186.252 149.09 188.346 147.937C188.772 147.736 190.034 147.759 189.11 149.215C188.684 149.416 188.01 149.674 188.942 150.084C189.342 150.459 189.767 150.258 190.098 149.871C190.748 149.048 191.611 148.695 191.177 147.03C190.638 145.13 191.988 143.472 193.782 143.529C196.945 143.844 198.864 141.693 201.157 140.494C201.831 140.236 202.044 139.565 202.551 140.176C203.457 141.162 204.484 141.757 204.822 143.236C204.998 144.234 204.029 144.352 203.31 144.412C201.728 144.826 200.697 146.047 199.267 146.893C197.41 147.94 196.119 150.311 193.466 148.79L192.934 148.756C191.862 153.463 187.342 152.94 184.386 154.446C182.341 155.588 179.704 156.658 177.048 156.954C175.654 157.272 175.049 158.293 174.373 159.692C173.562 158.892 173.473 157.356 171.998 156.863Z" fill="#007E72"/>
<path d="M542.227 169.879C544.765 170.441 546.678 169.64 548.759 167.971C550.083 166.89 551.114 165.669 552.589 165.02C554.846 164.348 554.875 161.955 556.388 160.779C555.137 159.664 556.63 157.714 554.954 156.8C554.316 156.531 553.953 155.628 554.177 155.006C554.309 154.665 554.746 154.513 554.933 154.418C555.759 154.593 556.078 155.298 556.147 156.06C556.661 158.537 557.438 160.331 560.087 158.169C560.325 158.063 560.512 157.968 560.512 157.968C563.303 162.156 565.47 158.34 568.07 157.797C568.79 157.736 569.795 157.092 569.733 158.195C569.908 159.193 571.016 160.6 569.622 160.919C566.691 161.848 565.08 164.655 562.305 165.808C561.017 166.362 559.542 165.869 558.123 166.765C556.692 167.61 554.227 165.995 553.679 168.87C551.015 167.3 550.891 169.507 550.405 171.279C548.141 170.084 547.519 173.547 545.162 172.633C543.936 172.083 543.899 172.61 544.348 171.366C544.609 170.217 542.26 171.169 542.227 169.879Z" fill="#007E72"/>
<path d="M171.367 366.784C172.23 366.431 173.411 365.642 171.892 364.952C170.666 364.402 171.022 363.438 171.058 362.911C171.12 361.807 172.158 362.452 172.64 362.498C174.009 362.756 174.471 362.027 174.427 360.688C174.068 356.827 174.399 356.44 178.519 356.588C177.726 357.703 178.534 360.32 175.752 359.607C175.752 359.607 175.183 360.1 175.102 360.43C175.065 360.958 175.383 361.663 175.677 361.803C178.154 363.468 181.698 362.243 182.777 359.402C183.276 358.147 181.838 357.126 182.231 355.636C182.399 354.767 182.73 354.38 183.343 354.084C184.443 353.625 185.431 354.281 186.568 353.295C187.324 352.707 188.824 352.624 190.325 352.54C189.638 353.89 187.206 353.564 187.851 355.7L187.283 356.193C184.619 354.623 185.284 357.532 184.634 358.355C185.635 359.527 184.649 362.087 187.318 362.307C185.124 361.875 185.532 364.117 184.101 364.963C181.194 366.457 179.237 364.31 176.88 363.396C175.31 362.718 175.842 362.752 175.155 364.102C174.362 365.217 173.237 366.253 172.55 367.603C172.806 367.804 171.768 367.159 171.367 366.784Z" fill="#007E72"/>
<path d="M109.443 193.526C107.641 191.603 106.672 191.72 104.948 192.426C101.697 193.792 104.236 194.353 105.875 195.794C101.898 194.213 100.099 197.114 97.4174 197.987C96.4489 198.105 95.2305 199.421 94.417 198.154C93.5472 196.641 94.1024 195.632 95.4269 194.551C97.9333 192.68 101.477 192.597 103.169 189.46C103.394 188.838 104.138 189.342 104.858 189.282C107.29 189.608 109.778 190.18 110.989 186.998C111.345 186.034 112.739 185.716 114.002 185.738C114.533 185.772 115.396 185.42 115.664 186.137C116.028 187.039 114.777 187.066 114.777 187.066C113.948 190.317 109.685 190.461 109.443 193.526Z" fill="#007E72"/>
<path d="M171.367 366.784C168.436 367.713 164.991 367.308 161.704 369.201C162.734 367.979 163.315 366.394 162.158 366.606C159.796 367.042 159.081 364.144 157.099 364.182C155.942 364.395 155.849 363.067 155.829 362.294C155.653 361.296 156.622 361.178 157.341 361.118C161.63 360.397 163.55 361.463 164.877 365.206C165.134 365.874 165.784 366.192 166.246 365.464C166.896 364.641 168.164 363.313 167.857 362.657C167.061 358.948 169.636 358.982 172.187 358.45C170.044 361.223 167.252 363.678 171.367 366.784Z" fill="#007E72"/>
<path d="M497.433 26.639C497.327 26.4038 497.22 26.1686 497.469 26.1117C498.288 24.42 498.167 20.4524 501.157 24.5943C501.263 24.8295 503.175 24.0291 502.669 23.4184C501.198 21.1085 502.992 21.1653 503.986 20.4711C505.417 19.6252 506.848 18.7793 508.455 17.7892C510.961 15.9191 513.944 18.1948 516.706 18.134C509.738 20.194 504.884 26.2328 497.433 26.639Z" fill="#007E72"/>
<path d="M125.142 355.247C124.181 357.231 121.303 356.332 121.143 359.067C117.154 358.578 114.725 363.077 111.467 362.576C107.809 361.7 107.718 365.197 105.461 365.869C104.067 366.188 102.53 366.798 101.304 366.248C100.372 365.839 101.485 364.287 100.721 363.009C102.097 365.133 103.917 364.613 105.523 364.765C106.243 364.704 106.541 363.028 107.772 362.227C109.771 360.888 111.859 361.086 114.01 360.179C115.11 359.72 115.936 359.894 114.828 358.487C113.921 357.501 114.996 357.619 115.478 357.664C118.742 356.814 121.553 355.134 125.142 355.247Z" fill="#007E72"/>
<path d="M72.466 204.573C72.5975 204.232 72.5027 204.046 72.6905 203.951C76.0264 200.438 80.4904 200.715 84.6341 199.82C85.6026 199.702 85.8844 200.935 86.1418 201.602C86.6481 202.213 85.7858 202.566 85.1479 202.296C85.0418 202.061 85.1846 201.769 84.9723 201.299C83.3903 201.712 81.4655 200.855 80.0592 202.266C78.404 203.734 76.5223 205.358 74.1034 205.548C73.1734 205.605 72.6783 205.043 72.466 204.573Z" fill="#007E72"/>
</g>
<defs>
<clipPath id="clip0_8_36">
<rect width="600" height="266.667" fill="white" transform="translate(0 133.71) rotate(-12.8765)"/>
</clipPath>
</defs>
</svg>
